# xmcd
#
# Track frame offsets:
#	150
#	5229
#	19238
#	34093
#	45365
#
# Disc length: 813 seconds
#
# Revision: 0
# Processed by: cddbd v1.5.2PL0 Copyright (c) Steve Scherf et al.
# Submitted via: EZCDAudioConverter 7.1.5.1
#
DISCID=35032b05
DTITLE=潘玮柏 - 未来式 新曲＋精选 BONUS CD
DYEAR=2008
DGENRE=
TTITLE0=纪佳松Blue J/潘玮柏 - 同一个遗憾(先听版)
TTITLE1=潘玮柏 - 同一个遗憾(钢琴配乐版)
TTITLE2=潘玮柏 - 同一个遗憾(吉他配乐版)
TTITLE3=潘玮柏 - 夏日疯(钢琴配乐版)
TTITLE4=潘玮柏 - 夏日疯(吉他配乐版)
EXTD=
EXTT0=
EXTT1=
EXTT2=
EXTT3=
EXTT4=
PLAYORDER=
